<svg width="640" height="623" viewBox="0 0 640 623" fill="none" xmlns="http://www.w3.org/2000/svg">
<path d="M404.854 35.6847C410.256 24.8068 423.039 19.625 434.06 24.727C476.306 44.2831 510.938 74.334 533.267 111.15C558.979 153.545 566.786 202.289 555.356 249.075C543.927 295.861 513.968 337.795 470.585 367.731C427.202 397.668 373.079 413.755 317.437 413.252C261.796 412.749 208.079 395.686 165.439 364.971C122.8 334.256 93.8754 291.79 83.5949 244.808C73.3143 197.825 82.3137 149.234 109.059 107.313C132.284 70.9105 167.643 41.4936 210.357 22.7059C221.489 17.8094 234.185 23.2683 239.338 34.2837C245.319 47.067 238.819 62.1073 226.2 68.4268C197.123 82.988 173.027 104.132 156.687 129.741C135.981 162.196 129.014 199.814 136.973 236.187C144.932 272.559 167.325 305.436 200.336 329.215C233.346 352.993 274.933 366.203 318.009 366.593C361.086 366.982 402.987 354.528 436.573 331.352C470.159 308.175 493.352 275.711 502.201 239.49C511.049 203.27 505.006 165.533 485.1 132.712C469.43 106.875 445.933 85.3415 417.313 70.2627C404.764 63.6509 398.546 48.3891 404.854 35.6847Z" fill="#8FBFFA"/>
<path d="M427.787 166.415C427.787 215.433 379.515 255.169 319.969 255.169C260.424 255.169 212.152 215.433 212.152 166.415C212.152 117.397 260.424 77.6602 319.969 77.6602C379.515 77.6602 427.787 117.397 427.787 166.415ZM267.479 166.415C267.479 190.279 290.98 209.625 319.969 209.625C348.959 209.625 372.46 190.279 372.46 166.415C372.46 142.55 348.959 123.205 319.969 123.205C290.98 123.205 267.479 142.55 267.479 166.415Z" fill="#8FBFFA"/>
<path d="M228.74 485.376C204.412 466.886 142.486 432.956 89.4067 445.159C36.3275 457.363 23.0577 502.942 23.0577 524.206C21.9519 546.395 36.3275 592.436 102.676 599.093C185.613 607.414 449.679 429.747 538.921 438.225" stroke="#8FBFFA" stroke-width="46" stroke-linecap="round"/>
<path d="M412 549.886C436.241 568.078 497.944 601.462 550.832 589.455C603.72 577.448 616.943 532.602 616.943 511.681C618.044 489.849 603.72 444.549 537.61 438" stroke="#8FBFFA" stroke-width="46" stroke-linecap="round"/>
</svg>
